P3
# CREATOR: GIMP PNM Filter Version 1.1
10 25
255
100
186
151
100
186
151
100
186
151
100
186
151
100
186
151
100
186
151
100
186
151
100
186
151
100
186
151
100
186
151
100
186
151
100
186
151
100
186
151
100
186
151
100
186
151
100
186
151
100
186
151
100
186
151
100
186
151
100
186
151
100
186
151
100
186
151
100
186
151
100
186
151
100
186
151
100
186
151
100
186
151
100
186
151
100
186
151
100
186
151
100
186
151
100
186
151
100
186
151
100
186
151
100
186
151
100
186
151
100
186
151
100
186
151
100
186
151
100
186
151
100
186
151
100
186
151
100
186
151
100
186
151
100
186
151
100
186
151
100
186
151
100
186
151
100
186
151
100
186
151
100
186
151
100
186
151
100
186
151
100
186
151
100
186
151
100
186
151
100
186
151
100
186
151
100
186
151
100
186
151
100
186
151
100
186
151
100
186
151
100
186
151
100
186
151
100
186
151
100
186
151
100
186
151
100
186
151
100
186
151
100
186
151
100
186
151
100
186
151
100
186
151
100
186
151
100
186
151
100
186
151
100
186
151
100
186
151
100
186
151
100
186
151
100
186
151
100
186
151
100
186
151
100
186
151
100
186
151
100
186
151
100
186
151
100
186
151
100
186
151
100
186
151
100
186
151
100
186
151
100
186
151
100
186
151
100
186
151
100
186
151
100
186
151
100
186
151
100
186
151
100
186
151
100
186
151
100
186
151
100
186
151
100
186
151
100
186
151
100
186
151
100
186
151
100
186
151
100
186
151
100
186
151
100
186
151
100
186
151
100
186
151
100
186
151
100
186
151
100
186
151
100
186
151
100
186
151
100
186
151
100
186
151
100
186
151
100
186
151
100
186
151
100
186
151
100
186
151
100
186
151
100
186
151
100
186
151
100
186
151
100
186
151
51
44
26
51
44
26
51
44
26
51
44
26
51
44
26
51
44
26
51
44
26
100
55
151
100
186
151
51
44
26
51
44
26
51
44
26
51
44
26
51
44
26
51
44
26
51
44
26
51
44
26
51
44
26
51
44
26
51
44
26
51
44
26
51
44
26
51
44
26
51
44
26
51
44
26
51
44
26
51
44
26
51
44
26
51
44
26
51
44
26
51
44
26
51
44
26
51
44
26
51
44
26
51
44
26
51
44
26
51
44
26
51
44
26
51
44
26
51
44
26
51
44
26
51
44
26
51
44
26
51
44
26
51
44
26
51
44
26
51
44
26
51
44
26
51
44
26
51
44
26
51
44
26
51
44
26
51
44
26
51
44
26
51
44
26
51
44
26
51
44
26
51
44
26
51
44
26
51
44
26
51
44
26
51
44
26
51
44
26
51
44
26
51
44
26
51
44
26
51
44
26
51
44
26
51
44
26
51
44
26
51
44
26
51
44
26
51
44
26
51
44
26
51
44
26
51
44
26
51
44
26
51
44
26
51
44
26
51
44
26
51
44
26
51
44
26
51
44
26
51
44
26
51
44
26
51
44
26
51
44
26
51
44
26
51
44
26
51
44
26
51
44
26
51
44
26
51
44
26
51
44
26
51
44
26
51
44
26
51
44
26
51
44
26
51
44
26
51
44
26
51
44
26
51
44
26
51
44
26
51
44
26
51
44
26
51
44
26
51
44
26
51
44
26
51
44
26
51
44
26
51
44
26
51
44
26
51
44
26
51
44
26
51
44
26
51
44
26
51
44
26
51
44
26
51
44
26
